<?xml version="1.0" encoding="UTF-8"?>
<svg id="Layer_2" data-name="Layer 2" xmlns="http://www.w3.org/2000/svg" viewBox="0 0 976.26 145.19">
  <defs>
    <style>
      .cls-1 {
        fill: #dfff00;
      }
    </style>
  </defs>
  <g id="Layer_1-2" data-name="Layer 1">
    <g>
      <path class="cls-1" d="M78.75,2.05l20.7,41.94c.53,1.08,1.56,1.83,2.75,2l46.28,6.72c3,.44,4.2,4.12,2.03,6.23l-33.49,32.64c-.86.84-1.25,2.05-1.05,3.24l7.91,46.09c.51,2.99-2.62,5.26-5.3,3.85l-41.39-21.76c-1.06-.56-2.34-.56-3.4,0l-41.39,21.76c-2.68,1.41-5.82-.87-5.3-3.85l7.91-46.09c.2-1.19-.19-2.4-1.05-3.24L1.28,59.73c-2.5-2.44-1.12-6.69,2.34-7.19l45.16-6.56c1.19-.17,2.22-.92,2.75-2L72.23,2.04c1.34-2.72,5.21-2.72,6.56,0h-.04Z"/>
      <path class="cls-1" d="M284.91,2.05l20.7,41.94c.53,1.08,1.56,1.83,2.75,2l46.28,6.72c3,.44,4.2,4.12,2.03,6.23l-33.49,32.64c-.86.84-1.25,2.05-1.05,3.24l7.91,46.09c.51,2.99-2.62,5.26-5.3,3.85l-41.39-21.76c-1.06-.56-2.34-.56-3.4,0l-41.39,21.76c-2.68,1.41-5.82-.87-5.3-3.85l7.91-46.09c.2-1.19-.19-2.4-1.05-3.24l-33.49-32.64c-2.17-2.11-.97-5.8,2.03-6.23l46.28-6.72c1.19-.17,2.22-.92,2.75-2l20.7-41.94c1.34-2.72,5.21-2.72,6.56,0h-.04Z"/>
      <path class="cls-1" d="M491.08,2.05l20.7,41.94c.53,1.08,1.56,1.83,2.75,2l46.28,6.72c3,.44,4.2,4.12,2.03,6.23l-33.49,32.64c-.86.84-1.25,2.05-1.05,3.24l7.91,46.09c.51,2.99-2.62,5.26-5.3,3.85l-41.39-21.76c-1.06-.56-2.34-.56-3.4,0l-41.39,21.76c-2.68,1.41-5.82-.87-5.3-3.85l7.91-46.09c.2-1.19-.19-2.4-1.05-3.24l-33.49-32.64c-2.17-2.11-.97-5.8,2.03-6.23l46.28-6.72c1.19-.17,2.22-.92,2.75-2l20.7-41.94c1.34-2.72,5.21-2.72,6.56,0h-.04Z"/>
      <path class="cls-1" d="M697.24,2.05l20.7,41.94c.53,1.08,1.56,1.83,2.75,2l46.28,6.72c3,.44,4.2,4.12,2.03,6.23l-33.49,32.64c-.86.84-1.25,2.05-1.05,3.24l7.91,46.09c.51,2.99-2.62,5.26-5.3,3.85l-41.39-21.76c-1.06-.56-2.34-.56-3.4,0l-41.39,21.76c-2.68,1.41-5.82-.87-5.3-3.85l7.91-46.09c.2-1.19-.19-2.4-1.05-3.24l-33.49-32.64c-2.17-2.11-.97-5.8,2.03-6.23l46.28-6.72c1.19-.17,2.22-.92,2.75-2l20.7-41.94c1.34-2.72,5.21-2.72,6.56,0h-.04Z"/>
      <path class="cls-1" d="M903.4,2.05l20.7,41.94c.53,1.08,1.56,1.83,2.75,2l46.28,6.72c3,.44,4.2,4.12,2.03,6.23l-33.49,32.64c-.86.84-1.25,2.05-1.05,3.24l7.91,46.09c.51,2.99-2.62,5.26-5.3,3.85l-41.39-21.76c-1.06-.56-2.34-.56-3.4,0l-41.39,21.76c-2.68,1.41-5.82-.87-5.3-3.85l7.91-46.09c.2-1.19-.19-2.4-1.05-3.24l-33.49-32.64c-2.17-2.11-.97-5.8,2.03-6.23l46.28-6.72c1.19-.17,2.22-.92,2.75-2l20.7-41.94c1.34-2.72,5.21-2.72,6.56,0h-.04Z"/>
    </g>
  </g>
</svg>