<?xml version="1.0" encoding="UTF-8"?>
<svg id="Layer_1" xmlns="http://www.w3.org/2000/svg" version="1.1" viewBox="0 0 24 24">
  <!-- Generator: Adobe Illustrator 29.1.0, SVG Export Plug-In . SVG Version: 2.1.0 Build 142)  -->
  <defs>
    <style>
      .st0 {
        fill: #c1d2fc;
      }
    </style>
  </defs>
  <path class="st0" d="M8,17c-.3,0-.5,0-.7-.3s-.3-.4-.3-.7v-8c0-.3,0-.5.3-.7s.4-.3.7-.3h3.5v.6h-3.5c0,0-.2,0-.3.1,0,0-.1.2-.1.3v8c0,0,0,.2.1.3,0,0,.2.1.3.1h8c0,0,.2,0,.3-.1,0,0,.1-.2.1-.3v-3.5h.6v3.5c0,.3,0,.5-.3.7-.2.2-.4.3-.7.3h-8ZM10.6,13.9l-.4-.4,5.8-5.8h-2.7v-.6h3.8v3.8h-.6v-2.7l-5.8,5.8Z"/>
</svg>