<?xml version="1.0" encoding="UTF-8"?>
<svg id="Layer_2" data-name="Layer 2" xmlns="http://www.w3.org/2000/svg" viewBox="0 0 1083.15 796.72">
  <defs>
    <style>
      .cls-1 {
        fill: #fff;
      }
    </style>
  </defs>
  <g id="Layer_1-2" data-name="Layer 1">
    <g>
      <g>
        <path class="cls-1" d="M1023.37,727.09h56.67c1.71,0,3.1-1.45,3.1-3.24v-12.21c0-1.79-1.39-3.24-3.1-3.24h-83.85c-1.71,0-3.1,1.45-3.1,3.24v81.84c0,1.79,1.39,3.24,3.1,3.24h83.85c1.71,0,3.1-1.45,3.1-3.24v-12.21c0-1.79-1.39-3.24-3.1-3.24h-56.67c-1.71,0-3.1-1.45-3.1-3.24v-9.87c0-1.79,1.39-3.24,3.1-3.24h56.67c1.71,0,3.1-1.45,3.1-3.24v-12.22c0-1.79-1.39-3.24-3.1-3.24h-56.67c-1.72,0-3.11-1.45-3.11-3.25v-9.39c0-1.79,1.39-3.24,3.1-3.24Z"/>
        <path class="cls-1" d="M825.54,708.4h-21.36c-1.61,0-2.91,1.36-2.91,3.04v82.24c0,1.68,1.3,3.04,2.91,3.04h21.36c1.61,0,2.91-1.36,2.91-3.04v-82.24c0-1.68-1.3-3.04-2.91-3.04Z"/>
        <path class="cls-1" d="M508.35,708.4h-26.35c-1.07,0-2.06.57-2.63,1.5l-20.83,34.25c-1.21,2-4.04,2-5.25,0l-20.73-34.24c-.57-.93-1.56-1.5-2.63-1.5h-26.35c-1.71,0-3.1,1.43-3.1,3.19v81.94c0,1.76,1.39,3.19,3.1,3.19h20.98c1.71,0,3.1-1.43,3.1-3.19v-41.11c0-3.18,4.03-4.4,5.7-1.73l13.12,20.95c.57.91,1.55,1.46,2.6,1.46h13.77c1.05,0,2.03-.55,2.6-1.46l13.12-20.95c1.67-2.67,5.7-1.45,5.7,1.73v41.11c0,1.76,1.39,3.19,3.1,3.19h20.98c1.71,0,3.1-1.43,3.1-3.19v-81.94c0-1.76-1.39-3.19-3.1-3.19Z"/>
        <path class="cls-1" d="M107.87,708.4h-26.35c-1.07,0-2.06.57-2.63,1.5l-20.83,34.25c-1.22,2-4.04,2-5.25,0l-20.73-34.24c-.57-.93-1.56-1.5-2.63-1.5H3.1c-1.71,0-3.1,1.43-3.1,3.19v81.94c0,1.76,1.39,3.19,3.1,3.19h20.98c1.71,0,3.1-1.43,3.1-3.19v-41.11c0-3.18,4.03-4.4,5.7-1.73l13.12,20.95c.57.91,1.55,1.46,2.6,1.46h13.77c1.05,0,2.03-.55,2.6-1.46l13.12-20.95c1.67-2.67,5.7-1.45,5.7,1.73v41.11c0,1.76,1.39,3.19,3.1,3.19h20.98c1.71,0,3.1-1.43,3.1-3.19v-81.94c0-1.76-1.39-3.19-3.1-3.19Z"/>
        <path class="cls-1" d="M935.69,743.39h-39.58c-1.62,0-6.01-.65-7.01-4.99-.13-.57-.21-1.2-.21-1.9,0-.24.02-.47.04-.7-.01-.22-.04-.42-.04-.65,0-7.2,6.27-8.18,8.58-8.18,0,0,18.92.16,23.91.16,3.7,0,7.2,2.38,9.21,6.26.54,1.03,1.5,1.75,2.63,1.75h21.92c2.05,0,3.53-2.03,3.03-4.09-3.18-13.26-12.81-22.67-23.99-22.67h-48.96c-12.62,0-24.26,6.06-24.26,26.04s11.65,27.28,24.37,27.28h39.58c1.62,0,6.01.65,7.01,4.99.13.57.21,1.2.21,1.9,0,.25-.02.47-.04.7.01.22.04.42.04.65,0,7.2-6.27,8.18-8.58,8.18,0,0-18.92-.16-23.91-.16-3.7,0-7.2-2.38-9.21-6.26-.54-1.03-1.5-1.75-2.63-1.75h-21.92c-2.05,0-3.53,2.03-3.03,4.09,3.18,13.26,12.81,22.67,23.99,22.67h48.96c12.62,0,24.26-6.06,24.26-26.04s-11.65-27.28-24.37-27.28Z"/>
        <path class="cls-1" d="M343.9,743.39h-39.58c-1.62,0-6.01-.65-7.01-4.99-.13-.57-.21-1.2-.21-1.9,0-.24.02-.47.04-.7-.01-.22-.04-.42-.04-.65,0-7.2,6.27-8.18,8.58-8.18,0,0,18.92.16,23.91.16,3.7,0,7.2,2.38,9.21,6.26.54,1.03,1.5,1.75,2.63,1.75h21.92c2.05,0,3.53-2.03,3.03-4.09-3.18-13.26-12.81-22.67-23.99-22.67h-48.96c-12.62,0-24.26,6.06-24.26,26.04s11.65,27.28,24.37,27.28h39.58c1.62,0,6.01.65,7.01,4.99.13.57.21,1.2.21,1.9,0,.25-.02.47-.04.7.01.22.04.42.04.65,0,7.2-6.27,8.18-8.58,8.18,0,0-18.92-.16-23.91-.16-3.7,0-7.2-2.38-9.21-6.26-.54-1.03-1.5-1.75-2.63-1.75h-21.92c-2.05,0-3.53,2.03-3.03,4.09,3.18,13.26,12.81,22.67,23.99,22.67h48.96c12.62,0,24.26-6.06,24.26-26.04s-11.65-27.28-24.37-27.28Z"/>
        <path class="cls-1" d="M743.47,708.4h-68.57c-1.69,0-3.05,1.43-3.05,3.19v82.07c0,1.69,1.31,3.06,2.93,3.06h21.08c1.75,0,3.17-1.48,3.17-3.31v-26.77c0-.27.03-.53.08-.79v-34.79c0-1.63,1.26-2.94,2.82-2.94h31.29c2.59-.11,5.07,1.35,6.36,3.72,1.3,2.36,1.3,5.3,0,7.55-1.29,2.36-3.78,3.83-6.36,3.83h-25.49c-2.51,0-3.95,3-2.44,5.1,8.87,12.37,17.73,24.74,26.6,37.11l-.09.03,6.71,9.35c.87,1.22,2.24,1.93,3.7,1.93h21.91c2.57,0,4.03-3.06,2.5-5.21l-18.36-25.6c-1.02-1.42-.36-3.49,1.28-3.93,9.83-2.61,17.5-11.15,18.86-22.05.32-2.93.32-5.75,0-8.67-1.62-13.07-12.3-22.86-24.91-22.86Z"/>
        <path class="cls-1" d="M633.64,708.4h-83.85c-1.71,0-3.1,1.45-3.1,3.24v81.84c0,1.79,1.39,3.24,3.1,3.24h83.85c1.71,0,3.1-1.45,3.1-3.24v-12.21c0-1.79-1.39-3.24-3.1-3.24h-56.67c-1.71,0-3.1-1.45-3.1-3.24v-9.87c0-1.79,1.39-3.24,3.1-3.24h56.67c1.71,0,3.1-1.45,3.1-3.24v-12.22c0-1.79-1.39-3.24-3.1-3.24h-56.67c-1.72,0-3.11-1.45-3.11-3.25v-9.39c0-1.79,1.39-3.24,3.1-3.24h56.67c1.71,0,3.1-1.45,3.1-3.24v-12.21c0-1.79-1.39-3.24-3.1-3.24Z"/>
        <path class="cls-1" d="M233.18,708.4h-83.85c-1.71,0-3.1,1.45-3.1,3.24v81.84c0,1.79,1.39,3.24,3.1,3.24h83.85c1.71,0,3.1-1.45,3.1-3.24v-12.21c0-1.79-1.39-3.24-3.1-3.24h-56.67c-1.71,0-3.1-1.45-3.1-3.24v-9.87c0-1.79,1.39-3.24,3.1-3.24h56.67c1.71,0,3.1-1.45,3.1-3.24v-12.22c0-1.79-1.39-3.24-3.1-3.24h-56.67c-1.72,0-3.11-1.45-3.11-3.25v-9.39c0-1.79,1.39-3.24,3.1-3.24h56.67c1.71,0,3.1-1.45,3.1-3.24v-12.21c0-1.79-1.39-3.24-3.1-3.24Z"/>
      </g>
      <path class="cls-1" d="M1083.15,122.72V17.79c0-9.83-7.97-17.79-17.79-17.79h-22.68c-15.33,0-29.32,8.73-36.07,22.5l-150.42,307.17c-6.51,13.3-9.9,27.9-9.9,42.71v248.58h0v17.69h236.86V122.72h0Z"/>
      <path class="cls-1" d="M922.79,26.29c5.97-12.11-2.85-26.29-16.35-26.29h-209.91c-15.73,0-30.09,8.94-37.04,23.04l-50.68,102.87h-.04l-252.56,512.65h28c.24,0,.45.09.69.09h210.7c.43,0,.85-.08,1.28-.09h24.24l10.99-22.3c.09-.17.2-.32.29-.5L922.79,26.29Z"/>
      <path class="cls-1" d="M578.31,26.29c5.97-12.12-2.85-26.29-16.35-26.29h-209.91c-15.73,0-30.09,8.94-37.04,23.04l-48.88,99.22h0L11.76,638.56h27.96c.24,0,.45.09.69.09h210.7c.43,0,.85-.08,1.28-.09h24.28l11.21-22.76s.02-.03.02-.04L578.31,26.29Z"/>
    </g>
  </g>
</svg>