<?xml version="1.0" encoding="UTF-8"?>
<svg id="Layer_2" data-name="Layer 2" xmlns="http://www.w3.org/2000/svg" viewBox="0 0 894.74 533.35">
  <defs>
    <style>
      .cls-1 {
        fill: #fff;
      }
    </style>
  </defs>
  <g id="Layer_1-2" data-name="Layer 1">
    <g>
      <path class="cls-1" d="M879.88,0h-18.94c-12.8,0-24.49,7.29-30.12,18.79l-125.62,256.53c-5.44,11.1-8.26,23.3-8.26,35.67v207.6h0v14.78h197.81V14.86c0-8.21-6.65-14.86-14.86-14.86Z"/>
      <path class="cls-1" d="M747.17,0h-175.3c-13.14,0-25.13,7.46-30.94,19.24l-42.32,85.91h-.04l-210.92,428.13h23.38c.2,0,.37.08.57.08h175.96c.36,0,.71-.06,1.07-.08h20.25l9.18-18.63c.07-.14.17-.27.24-.42L760.82,21.95c4.98-10.12-2.38-21.95-13.66-21.95Z"/>
      <path class="cls-1" d="M459.48,0h-175.3c-13.14,0-25.13,7.46-30.94,19.25l-40.82,82.86h0L0,533.28h23.35c.2,0,.37.08.57.08h175.96c.36,0,.71-.06,1.07-.08h20.28l9.36-19.01s.01-.02.02-.04L473.14,21.95c4.98-10.12-2.38-21.95-13.66-21.95Z"/>
    </g>
  </g>
</svg>