<?xml version="1.0" encoding="UTF-8"?>
<svg id="Layer_2" data-name="Layer 2" xmlns="http://www.w3.org/2000/svg" viewBox="0 0 180 180">
  <defs>
    <style>
      .cls-1 {
        fill: none;
      }

      .cls-2 {
        fill: #111;
      }
    </style>
  </defs>
  <g id="Layer_1-2" data-name="Layer 1">
    <g>
      <rect class="cls-1" x="0" y="0" width="180" height="180"/>
      <g id="Layer_1-2" data-name="Layer 1-2">
        <g>
          <path class="cls-2" d="M170.34,40.46h-3.52c-2.38,0-4.55,1.35-5.6,3.49l-23.33,47.65c-1.01,2.06-1.53,4.33-1.53,6.63v38.56h0v2.75h36.74V43.22c0-1.53-1.24-2.76-2.76-2.76h0Z"/>
          <path class="cls-2" d="M145.69,40.46h-32.56c-2.44,0-4.67,1.39-5.75,3.57l-7.86,15.96h0l-39.18,79.53h4.34s.07.01.11.01h32.69c.07,0,.13-.01.2-.01h3.76l1.71-3.46s.03-.05.04-.08l45.05-91.44c.93-1.88-.44-4.08-2.54-4.08h0Z"/>
          <path class="cls-2" d="M92.25,40.46h-32.56c-2.44,0-4.67,1.39-5.75,3.58l-7.58,15.39h0L6.9,139.52h4.34s.07.01.11.01h32.69c.07,0,.13-.01.2-.01h3.77l1.74-3.53s0,0,0,0l45.05-91.44c.93-1.88-.44-4.08-2.54-4.08Z"/>
        </g>
      </g>
    </g>
  </g>
</svg>