<?xml version="1.0" encoding="UTF-8"?>
<svg id="Layer_2" data-name="Layer 2" xmlns="http://www.w3.org/2000/svg" viewBox="0 0 1287.39 104.98">
  <defs>
    <style>
      .cls-1 {
        fill: #fff;
      }
    </style>
  </defs>
  <g id="Layer_1-2" data-name="Layer 1">
    <g>
      <path class="cls-1" d="M1216.34,22.23h67.36c2.04,0,3.69-1.72,3.69-3.85V3.86c0-2.13-1.65-3.85-3.69-3.85h-99.66c-2.04,0-3.69,1.72-3.69,3.85v97.27c0,2.13,1.65,3.85,3.69,3.85h99.66c2.04,0,3.69-1.72,3.69-3.85v-14.52c0-2.13-1.65-3.85-3.69-3.85h-67.36c-2.04,0-3.69-1.72-3.69-3.85v-11.73c0-2.13,1.65-3.85,3.69-3.85h67.36c2.04,0,3.69-1.72,3.69-3.85v-14.52c0-2.13-1.65-3.85-3.69-3.85h-67.35c-2.04,0-3.7-1.73-3.7-3.86v-11.16c0-2.13,1.65-3.85,3.69-3.85Z"/>
      <path class="cls-1" d="M981.2,0h-25.39c-1.91,0-3.46,1.62-3.46,3.61v97.75c0,1.99,1.55,3.61,3.46,3.61h25.39c1.91,0,3.46-1.62,3.46-3.61V3.62c0-1.99-1.55-3.61-3.46-3.61Z"/>
      <path class="cls-1" d="M604.21,0h-31.32c-1.27,0-2.45.67-3.12,1.78l-24.76,40.71c-1.44,2.38-4.81,2.37-6.24,0l-24.64-40.69c-.67-1.11-1.85-1.78-3.12-1.78h-31.32c-2.03,0-3.68,1.7-3.68,3.79v97.39c0,2.09,1.65,3.79,3.68,3.79h24.94c2.03,0,3.68-1.7,3.68-3.79v-48.86c0-3.78,4.79-5.23,6.78-2.05l15.59,24.91c.68,1.08,1.84,1.74,3.09,1.74h16.36c1.25,0,2.42-.65,3.09-1.74l15.59-24.91c1.99-3.18,6.78-1.73,6.78,2.05v48.86c0,2.09,1.65,3.79,3.68,3.79h24.94c2.03,0,3.68-1.7,3.68-3.79V3.8c0-2.09-1.65-3.79-3.68-3.79Z"/>
      <path class="cls-1" d="M128.2,0h-31.32c-1.27,0-2.45.67-3.12,1.78l-24.76,40.71c-1.44,2.38-4.81,2.37-6.25,0L38.12,1.79C37.45.68,36.27,0,35,0H3.68C1.65,0,0,1.7,0,3.8v97.39c0,2.09,1.65,3.79,3.68,3.79h24.94c2.03,0,3.68-1.7,3.68-3.79v-48.86c0-3.78,4.79-5.23,6.78-2.05l15.59,24.91c.68,1.08,1.84,1.74,3.09,1.74h16.36c1.25,0,2.42-.65,3.09-1.74l15.59-24.91c1.99-3.18,6.78-1.73,6.78,2.05v48.86c0,2.09,1.65,3.79,3.68,3.79h24.94c2.03,0,3.68-1.7,3.68-3.79V3.8c0-2.09-1.65-3.79-3.68-3.79Z"/>
      <path class="cls-1" d="M1112.13,41.6h-47.04c-1.93,0-7.15-.77-8.34-5.93-.16-.68-.25-1.42-.25-2.26,0-.29.03-.56.04-.83-.02-.26-.04-.5-.04-.77,0-8.55,7.46-9.72,10.19-9.72,0,0,22.48.19,28.42.19,4.39,0,8.55,2.83,10.95,7.44.64,1.23,1.78,2.08,3.12,2.08h26.05c2.44,0,4.19-2.41,3.6-4.87-3.78-15.76-15.23-26.94-28.51-26.94h-58.19c-15,0-28.84,7.21-28.84,30.96s13.84,32.43,28.97,32.43h47.04c1.93,0,7.15.77,8.34,5.93.16.68.25,1.42.25,2.26,0,.29-.03.56-.04.83.02.26.04.5.04.77,0,8.55-7.46,9.72-10.19,9.72,0,0-22.48-.19-28.42-.19-4.39,0-8.55-2.83-10.95-7.44-.64-1.23-1.78-2.08-3.12-2.08h-26.05c-2.44,0-4.19,2.41-3.6,4.87,3.78,15.76,15.23,26.94,28.51,26.94h58.19c15,0,28.84-7.21,28.84-30.96s-13.84-32.43-28.97-32.43Z"/>
      <path class="cls-1" d="M408.75,41.6h-47.04c-1.93,0-7.15-.77-8.34-5.93-.16-.68-.25-1.42-.25-2.26,0-.29.03-.56.05-.83-.02-.26-.04-.5-.04-.77,0-8.55,7.46-9.72,10.19-9.72,0,0,22.48.19,28.42.19,4.39,0,8.55,2.83,10.95,7.44.64,1.23,1.78,2.08,3.12,2.08h26.05c2.44,0,4.19-2.41,3.6-4.86C431.68,11.19,420.24,0,406.95,0h-58.19c-15,0-28.84,7.21-28.84,30.95s13.84,32.43,28.97,32.43h47.04c1.93,0,7.15.77,8.34,5.93.16.68.25,1.42.25,2.26,0,.29-.03.56-.05.83.02.26.04.5.04.77,0,8.55-7.46,9.72-10.19,9.72,0,0-22.48-.19-28.42-.19-4.39,0-8.55-2.83-10.95-7.44-.64-1.23-1.78-2.08-3.12-2.08h-26.05c-2.44,0-4.19,2.41-3.6,4.86,3.78,15.76,15.23,26.94,28.51,26.94h58.19c15,0,28.84-7.21,28.84-30.95s-13.84-32.43-28.97-32.43Z"/>
      <path class="cls-1" d="M883.66,0h-81.49c-2,0-3.63,1.7-3.63,3.79v97.55c0,2.01,1.56,3.63,3.48,3.63h25.05c2.08,0,3.77-1.76,3.77-3.94v-31.82c0-.32.04-.63.1-.94V26.93c0-1.93,1.5-3.5,3.35-3.5h37.19c3.07-.13,6.03,1.61,7.56,4.42,1.54,2.81,1.54,6.29,0,8.97-1.53,2.81-4.49,4.55-7.56,4.55h-30.3c-2.99,0-4.69,3.56-2.9,6.06,10.54,14.7,21.08,29.4,31.62,44.11l-.11.04,7.97,11.11c1.04,1.45,2.67,2.3,4.39,2.3h26.05c3.05,0,4.8-3.64,2.97-6.19l-21.83-30.43c-1.21-1.68-.43-4.15,1.52-4.67,11.68-3.1,20.8-13.25,22.41-26.2.38-3.48.38-6.83,0-10.31C911.35,11.65,898.66,0,883.66,0Z"/>
      <path class="cls-1" d="M753.13,0h-99.66c-2.04,0-3.69,1.72-3.69,3.85v97.27c0,2.13,1.65,3.85,3.69,3.85h99.66c2.04,0,3.69-1.72,3.69-3.85v-14.52c0-2.13-1.65-3.85-3.69-3.85h-67.36c-2.04,0-3.69-1.72-3.69-3.85v-11.73c0-2.13,1.65-3.85,3.69-3.85h67.36c2.04,0,3.69-1.72,3.69-3.85v-14.52c0-2.13-1.65-3.85-3.69-3.85h-67.35c-2.04,0-3.7-1.73-3.7-3.86v-11.16c0-2.13,1.65-3.85,3.69-3.85h67.36c2.04,0,3.69-1.72,3.69-3.85V3.86c0-2.13-1.65-3.85-3.69-3.85Z"/>
      <path class="cls-1" d="M277.15,0h-99.66c-2.04,0-3.69,1.72-3.69,3.85v97.27c0,2.13,1.65,3.85,3.69,3.85h99.66c2.04,0,3.69-1.72,3.69-3.85v-14.52c0-2.13-1.65-3.85-3.69-3.85h-67.36c-2.04,0-3.69-1.72-3.69-3.85v-11.73c0-2.13,1.65-3.85,3.69-3.85h67.36c2.04,0,3.69-1.72,3.69-3.85v-14.52c0-2.13-1.65-3.85-3.69-3.85h-67.35c-2.04,0-3.7-1.73-3.7-3.86v-11.16c0-2.13,1.65-3.85,3.69-3.85h67.36c2.04,0,3.69-1.72,3.69-3.85V3.86c0-2.13-1.65-3.85-3.69-3.85Z"/>
    </g>
  </g>
</svg>