{
	"asset":{
		"generator":"Khronos glTF Blender I/O v4.5.47",
		"version":"2.0"
	},
	"extensionsUsed":[
		"KHR_materials_clearcoat",
		"KHR_materials_transmission",
		"KHR_materials_ior"
	],
	"scene":0,
	"scenes":[
		{
			"name":"Scene",
			"nodes":[
				0
			]
		}
	],
	"nodes":[
		{
			"mesh":0,
			"name":"logo_svg",
			"rotation":[
				0.7071068286895752,
				0,
				0,
				0.7071068286895752
			],
			"scale":[
				15.278512001037598,
				15.278512001037598,
				15.278512001037598
			],
			"translation":[
				2.1086575984954834,
				1.0430434942245483,
				0
			]
		}
	],
	"materials":[
		{
			"doubleSided":true,
			"extensions":{
				"KHR_materials_clearcoat":{
					"clearcoatFactor":0.10000000149011612
				},
				"KHR_materials_transmission":{
					"transmissionFactor":1
				},
				"KHR_materials_ior":{
					"ior":1.4500000476837158
				}
			},
			"name":"ShinyGlassMaterial",
			"pbrMetallicRoughness":{
				"metallicFactor":0,
				"roughnessFactor":0.05000000074505806
			}
		}
	],
	"meshes":[
		{
			"name":"Curve",
			"primitives":[
				{
					"attributes":{
						"POSITION":0,
						"NORMAL":1,
						"TEXCOORD_0":2
					},
					"indices":3,
					"material":0
				}
			]
		}
	],
	"accessors":[
		{
			"bufferView":0,
			"componentType":5126,
			"count":1192,
			"max":[
				0.11450888216495514,
				0.019999999552965164,
				0.06827430427074432
			],
			"min":[
				-0.13801459968090057,
				-0.019999999552965164,
				-0.08222584426403046
			],
			"type":"VEC3"
		},
		{
			"bufferView":1,
			"componentType":5126,
			"count":1192,
			"type":"VEC3"
		},
		{
			"bufferView":2,
			"componentType":5126,
			"count":1192,
			"type":"VEC2"
		},
		{
			"bufferView":3,
			"componentType":5123,
			"count":3384,
			"type":"SCALAR"
		}
	],
	"bufferViews":[
		{
			"buffer":0,
			"byteLength":14304,
			"byteOffset":0,
			"target":34962
		},
		{
			"buffer":0,
			"byteLength":14304,
			"byteOffset":14304,
			"target":34962
		},
		{
			"buffer":0,
			"byteLength":9536,
			"byteOffset":28608,
			"target":34962
		},
		{
			"buffer":0,
			"byteLength":6768,
			"byteOffset":38144,
			"target":34963
		}
	],
	"buffers":[
		{
			"byteLength":44912,
			"uri":"MESM-Logo-Center.bin"
		}
	]
}
